<?xml version="1.0" encoding="UTF-8"?>
<svg width="440px" height="303px" viewBox="0 0 440 303" version="1.1" xmlns="http://www.w3.org/2000/svg" xmlns:xlink="http://www.w3.org/1999/xlink">
    <!-- Generator: Sketch 55.2 (78181) - https://sketchapp.com -->
    <title>Page </title>
    <desc>Created with Sketch.</desc>
    <defs>
        <path d="M11.3969375,0.848832579 C8.5011875,1.7648914 6.1335625,3.65856561 5.299125,5.98313575 L5.299125,5.98313575 C3.2085625,6.96237104 1.6534375,7.69133032 0.4476875,8.25586878 L0.4476875,8.25586878 C3.4994375,12.2060181 6.9379375,16.0411538 9.38925,20.4084299 L9.38925,20.4084299 C12.3248125,25.6374977 13.329875,32.7675294 14.6713125,38.5643756 L14.6713125,38.5643756 C17.970875,52.8341584 20.158125,67.7753937 20.6334375,82.4185656 L20.6334375,82.4185656 C20.75125,86.0657919 20.5164375,89.7373167 20.245875,93.383733 L20.245875,93.383733 C19.8063125,99.3142217 19.2066875,105.232561 18.685875,111.15738 L18.685875,111.15738 C18.2755625,115.829199 17.9245625,120.507498 17.4403125,125.172027 L17.4403125,125.172027 C17.3525625,126.01357 16.7675625,126.812995 16.3735,127.612421 L16.3735,127.612421 C15.962375,128.446674 15.2043125,129.2299 15.1214375,130.086023 L15.1214375,130.086023 C14.841125,132.99214 14.8525,135.924986 14.6371875,138.839204 L14.6371875,138.839204 C14.4389375,141.533113 14.3511875,144.27724 13.73775,146.887724 L13.73775,146.887724 C13.1600625,149.354036 11.5903125,151.60733 11.1223125,154.079312 L11.1223125,154.079312 C10.3926875,157.945226 10.4398125,161.955312 9.737,165.826896 L9.737,165.826896 C9.308,168.180624 9.832875,170.984688 7.359625,172.763348 L7.359625,172.763348 C7.0435625,172.991756 7.2109375,174.199398 7.4644375,174.830353 L7.4644375,174.830353 C7.82925,175.736692 8.513375,176.511009 8.9935625,177.379281 L8.9935625,177.379281 C9.264125,177.867683 9.399,178.431412 9.594,178.960312 L9.594,178.960312 C10.153,178.678448 10.89075,178.534276 11.240125,178.088801 L11.240125,178.088801 C12.6035,176.350638 13.1210625,174.752597 12.0030625,172.318683 L12.0030625,172.318683 C10.7908125,169.679041 11.1336875,166.531557 12.4271875,163.707244 L12.4271875,163.707244 C13.037375,162.372439 13.4298125,160.895891 14.2471875,159.706068 L14.2471875,159.706068 C15.517125,157.857751 15.35625,154.959733 18.2300625,154.224294 L18.2300625,154.224294 C18.5835,154.134389 18.7386875,153.368982 19.0344375,152.951045 L19.0344375,152.951045 C20.1703125,151.349765 21.035625,149.312729 22.5753125,148.325394 L22.5753125,148.325394 C23.6120625,147.661231 24.26775,146.903113 24.5691875,146.036462 L24.5691875,146.036462 C25.5766875,143.136014 26.3258125,140.145661 27.1431875,137.29948 L27.1431875,137.29948 C28.055625,137.241973 28.653625,137.203905 29.2183125,137.168267 L29.2183125,137.168267 C29.822,135.768665 30.576,134.481647 30.93675,133.092575 L30.93675,133.092575 C31.757375,129.933751 32.3895,126.72633 33.08825,123.535109 L33.08825,123.535109 C33.2401875,122.841787 33.1118125,121.912769 33.5245625,121.481873 L33.5245625,121.481873 C35.2365,119.688633 37.064625,117.997448 38.9358125,116.366199 L38.9358125,116.366199 C39.830375,115.586213 40.9264375,115.037063 41.9144375,114.359941 L41.9144375,114.359941 C43.5825,113.216285 45.4228125,112.24191 46.847125,110.847977 L46.847125,110.847977 C48.452625,109.275045 49.6933125,107.371652 52.1064375,106.834652 L52.1064375,106.834652 C52.6491875,106.714778 53.1756875,106.193977 53.5559375,105.732303 L53.5559375,105.732303 C54.468375,104.625095 55.0525625,103.019765 56.1981875,102.38152 L56.1981875,102.38152 C58.5073125,101.095312 59.8495625,99.0380271 60.8180625,96.9191855 L60.8180625,96.9191855 C64.527125,88.8050588 63.337625,80.7451991 64.273625,72.1896471 L64.273625,72.1896471 C65.316875,62.6653891 64.553125,53.1411312 64.553125,43.7999231 L64.553125,43.7999231 C64.553125,37.2352398 62.52025,30.3085068 61.6630625,23.7802715 L61.6630625,23.7802715 C61.5070625,22.5944977 61.3510625,21.4046742 61.0585625,20.244009 L61.0585625,20.244009 C60.3468125,17.4237466 59.752875,14.9963122 58.566625,12.369629 L58.566625,12.369629 C57.3730625,9.72755656 55.6099375,7.95132579 52.6410625,7.48803167 L52.6410625,7.48803167 C51.689625,7.33980995 50.7715,6.96642081 49.8444375,6.67888688 L49.8444375,6.67888688 C48.6191875,6.29982805 47.4248125,5.77011765 46.1735625,5.54171041 L46.1735625,5.54171041 C43.41025,5.0371086 40.6290625,4.59325339 37.8373125,4.29357014 L37.8373125,4.29357014 C35.585875,4.05139367 33.307625,3.99469683 31.0399375,3.97606787 L31.0399375,3.97606787 C30.47525,3.97120814 29.901625,4.05544344 29.329625,4.13886878 L29.329625,4.13886878 C28.5025,4.26036199 27.681875,4.38104525 26.905125,4.23363348 L26.905125,4.23363348 C23.1668125,3.5281629 19.4813125,2.54325792 15.7714375,1.68389593 L15.7714375,1.68389593 C14.5624375,1.40446154 13.2185625,0.750828054 12.08675,0.750828054 L12.08675,0.750828054 C11.84625,0.750828054 11.6146875,0.779986425 11.3969375,0.848832579" id="path-1"></path>
        <path d="M2.25088889,1.30932836 C1.77177778,2.585 1.39611111,3.97723881 1.33777778,5.34156716 L1.33777778,5.34156716 C1.24988889,7.35276119 1.39611111,9.16283582 2.51844444,11.1994776 L2.51844444,11.1994776 C3.52333333,13.0251493 2.95944444,15.9688806 2.71288889,18.3765672 L2.71288889,18.3765672 C2.12877778,24.0842537 1.32144444,29.7673134 0.660333333,35.0177612 L0.660333333,35.0177612 C1.16122222,39.3668657 1.80833333,43.2029104 1.981,47.0611194 L1.981,47.0611194 C2.11166667,50.0007463 3.13288889,52.2064925 5.23288889,53.978806 L5.23288889,53.978806 C6.29533333,54.8752239 6.98055556,54.5304478 7.42777778,53.2096269 L7.42777778,53.2096269 C7.64322222,52.5734328 8.47,51.6302239 8.89933333,51.6967164 L8.89933333,51.6967164 C12.3472222,52.2270149 15.3058889,50.2576866 18.522,49.6666418 L18.522,49.6666418 C21.5374444,49.1117164 24.3856667,47.4682836 27.2673333,46.2032836 L27.2673333,46.2032836 C28.4728889,45.6746269 29.645,44.9826119 30.6848889,44.1576119 L30.6848889,44.1576119 C31.0208889,43.8916418 31.1694444,42.6422388 30.919,42.3984328 L30.919,42.3984328 C29.7974444,41.3099254 29.7468889,40.0038806 29.7367778,38.5697761 L29.7367778,38.5697761 C29.7165556,35.9888806 30.0984444,33.400597 28.399,31.0101493 L28.399,31.0101493 C27.8436667,30.2294776 28.0202222,28.0401493 28.6766667,27.295597 L28.6766667,27.295597 C30.2018889,25.5659701 32.0716667,23.995597 34.0791111,22.9637313 L34.0791111,22.9637313 C36.8674444,21.5304478 37.8668889,18.9290299 39.0148889,16.3070896 L39.0148889,16.3070896 C39.2202222,15.8391791 39.459,15.3876866 39.6604444,14.9197761 L39.6604444,14.9197761 C39.9676667,14.2047761 40.4763333,13.4938806 40.5128889,12.76 L40.5128889,12.76 C40.6373333,10.2488806 40.2243333,7.69097015 41.8926667,5.445 L41.8926667,5.445 C42.154,5.09447761 41.6523333,3.75395522 41.1646667,3.20641791 L41.1646667,3.20641791 C39.6246667,1.47597015 37.6631111,1.53179104 35.7062222,1.58679104 L35.7062222,1.58679104 C35.1742222,1.60156716 34.6422222,1.61634328 34.1195556,1.5941791 L34.1195556,1.5941791 C32.2194444,1.51947761 30.3185556,1.29126866 28.4238889,1.35037313 L28.4238889,1.35037313 C26.9243333,1.39716418 25.4395556,1.92828358 23.9415556,1.97671642 L23.9415556,1.97671642 C20.65,2.08097015 17.3421111,2.2 14.0637778,1.96850746 L14.0637778,1.96850746 C10.6726667,1.72716418 7.31188889,1.03843284 3.92777778,0.648507463 L3.92777778,0.648507463 C3.88033333,0.642761194 3.82977778,0.640298507 3.77688889,0.640298507 L3.77688889,0.640298507 C3.21377778,0.640298507 2.39011111,0.939104478 2.25088889,1.30932836" id="path-3"></path>
        <path d="M16.5805871,1.16488235 C15.4347214,1.96317647 14.4226617,2.95039216 13.6952438,3.57101961 L13.6952438,3.57101961 C14.9043632,6.47880392 16.3851493,9.17676471 17.1174328,12.0628431 L17.1174328,12.0628431 C17.7564577,14.5831373 17.6988806,17.3148627 17.6899602,19.9525294 L17.6899602,19.9525294 C17.6745522,24.3274706 17.4912786,28.7024118 17.307194,33.0749412 L17.307194,33.0749412 C17.0752637,38.5649216 16.8100846,44.054098 16.4840846,49.5392549 L16.4840846,49.5392549 C16.3056766,52.551549 16.0372537,55.5622353 15.692602,58.5600588 L15.692602,58.5600588 C15.2352289,62.5161569 14.7097363,66.4666275 14.1258557,70.4066471 L14.1258557,70.4066471 C13.647398,73.6311765 13.069194,76.8428431 12.4812587,80.0504902 L12.4812587,80.0504902 C11.9979353,82.6841373 11.4586567,85.3073333 10.8982935,87.9265098 L10.8982935,87.9265098 C10.5325572,89.6348431 10.1019453,91.3311176 9.66971144,93.0257843 L9.66971144,93.0257843 C8.53357711,97.4851373 7.5409801,101.990314 6.18832338,106.385353 L6.18832338,106.385353 C4.86161692,110.698392 3.13430348,114.889235 1.64378607,119.154843 L1.64378607,119.154843 C1.21641791,120.376804 0.997462687,121.671922 0.68119403,122.944529 L0.68119403,122.944529 C5.47793532,122.429216 9.86839303,122.126941 14.1858657,121.402608 L14.1858657,121.402608 C15.6520547,121.156608 17.2244776,120.097039 18.2276169,118.958686 L18.2276169,118.958686 C19.3361791,117.698941 19.9557413,115.963275 20.5850348,114.357843 L20.5850348,114.357843 C21.0578159,113.156784 21.3286716,112.042549 22.2401741,110.90098 L22.2401741,110.90098 C24.5789403,107.968275 27.6629652,105.431098 28.4422836,101.455706 L28.4422836,101.455706 C28.5509502,100.901804 28.8380249,100.265098 29.2540398,99.9121765 L29.2540398,99.9121765 C30.0885025,99.2039216 30.450995,98.4844118 30.6156169,97.3372157 L30.6156169,97.3372157 C30.8880945,95.4512157 31.3049204,93.3891569 32.3413085,91.8528627 L32.3413085,91.8528627 C34.0483483,89.3197059 33.9964478,86.489902 34.5016667,83.7581765 L34.5016667,83.7581765 C34.9606617,81.2772745 35.0806816,78.7360784 35.3726219,76.2238235 L35.3726219,76.2238235 C35.401005,75.9850588 35.5899552,75.7647843 35.7002438,75.5340588 L35.7002438,75.5340588 C36.2192488,74.4511765 36.9604527,73.4133137 37.2029254,72.2717451 L37.2029254,72.2717451 C37.59299,70.4355882 37.9416965,68.8623137 39.1597363,67.1354902 L39.1597363,67.1354902 C41.061403,64.4399412 42.1164428,61.018451 42.5357015,57.6395686 L42.5357015,57.6395686 C43.001995,53.8707843 43.2039204,50.0626078 43.3669204,46.2648824 L43.3669204,46.2648824 C43.5120796,42.865902 45.2012786,40.5401569 48.4377612,39.3206078 L48.4377612,39.3206078 C51.004403,38.3534902 53.6756567,37.4555098 55.953602,35.9963922 L55.953602,35.9963922 C58.0158358,34.6763529 60.0318458,34.0525098 62.7331045,34.2116863 L62.7331045,34.2116863 C63.4297065,37.8446078 64.3193134,41.389098 64.7328955,44.987451 L64.7328955,44.987451 C65.0588955,47.8244902 64.8026368,50.7290588 64.7945274,53.6030784 L64.7945274,53.6030784 C64.7912836,54.8644314 65.0694378,56.2278824 64.6866716,57.369451 L64.6866716,57.369451 C63.2561642,61.633451 63.391592,66.0268824 63.1142488,70.4106667 L63.1142488,70.4106667 C62.9488159,73.0435098 62.3608806,75.6988627 61.5921045,78.2336275 L61.5921045,78.2336275 C59.7244975,84.3956863 57.5487313,90.466098 55.6786915,96.6273529 L55.6786915,96.6273529 C54.6463582,100.030353 56.3858358,102.348059 59.9458856,102.758059 L59.9458856,102.758059 C60.4721891,102.818353 61.0398507,102.812725 61.6034577,102.807098 L61.6034577,102.807098 C62.7290498,102.795843 63.8440995,102.784588 64.6153085,103.295882 L64.6153085,103.295882 C66.7618806,104.721235 67.1868159,102.421216 68.4389154,102.057039 L68.4389154,102.057039 C69.4696269,101.757176 70.2870597,100.727353 71.3177711,100.439549 L71.3177711,100.439549 C72.9907512,99.9708627 74.8040249,99.9941765 76.4786269,99.5311176 L76.4786269,99.5311176 C78.1718806,99.0616275 80.047597,98.6918235 80.8439453,96.7254314 L80.8439453,96.7254314 C80.9688308,96.4167255 81.4189055,96.2454902 81.7011144,95.9898431 L81.7011144,95.9898431 C82.4155572,95.3418824 83.3562537,94.802451 83.7657811,93.9985294 L83.7657811,93.9985294 C84.240995,93.0659804 84.2880299,91.9051176 84.4453532,90.8318824 L84.4453532,90.8318824 C85.2562985,85.3089412 85.9423582,79.765098 86.8911642,74.2670784 L86.8911642,74.2670784 C87.2220299,72.354549 88.0759552,70.5015098 88.8828458,68.705549 L88.8828458,68.705549 C89.9881642,66.2431373 91.1705224,63.8024314 92.5158806,61.4622157 L92.5158806,61.4622157 C93.8101493,59.2128431 95.0898209,56.8501176 96.8844428,55.0284314 L96.8844428,55.0284314 C97.9613781,53.935902 98.6733881,53.0467647 99.00101,51.5619216 L99.00101,51.5619216 C99.1607662,50.8375882 100.189045,50.1028039 100.991881,49.7748039 L100.991881,49.7748039 C101.731463,49.4733333 102.693244,49.7104902 103.463642,49.7104902 L103.463642,49.7104902 C103.626642,49.948451 103.721522,50.040098 103.762881,50.1510392 L103.762881,50.1510392 C106.789328,58.5005686 104.807378,66.9144118 103.98508,75.2872549 L103.98508,75.2872549 C103.349299,81.7636471 104.88604,89.0375294 111.980189,92.3947059 L111.980189,92.3947059 C114.267866,93.4767843 116.695836,94.8490784 119.291672,93.4221176 L119.291672,93.4221176 C122.064294,91.8986863 124.695811,92.2725098 127.466,93.3200196 L127.466,93.3200196 C130.389458,94.4254118 133.332378,94.3369804 135.871448,92.3858627 L135.871448,92.3858627 C138.320502,90.5054902 140.496269,88.2770196 142.936403,86.3845882 L142.936403,86.3845882 C146.434821,83.6713529 148.809269,80.0464706 151.065318,76.4191765 L151.065318,76.4191765 C152.371751,74.3201373 153.246761,71.985549 155.171945,70.2756078 L155.171945,70.2756078 C155.57093,69.9210784 155.654458,69.2345294 155.931801,68.726451 L155.931801,68.726451 C156.774373,67.1772941 159.039343,66.6531373 160.004368,67.7971176 L160.004368,67.7971176 C160.482826,68.3654902 160.960473,68.9370784 161.432443,69.5118824 L161.432443,69.5118824 L162.249876,70.4621176 C162.621289,69.2224706 158.451408,63.0467451 157.258507,62.873902 L157.258507,62.873902 L157.244721,63.1681373 C157.256886,63.4615686 157.275537,63.755 157.280403,64.0484314 L157.280403,64.0484314 C157.290134,64.5999216 156.977109,65.3676667 156.548119,65.6828039 L156.548119,65.6828039 C153.003478,68.2818824 149.402881,70.8053922 145.808771,73.3353333 L145.808771,73.3353333 C142.161139,75.9022549 138.494045,78.4418431 134.848035,81.0103725 L134.848035,81.0103725 C132.99097,82.3191569 131.024428,82.9799804 128.671065,82.2500196 L128.671065,82.2500196 C128.671065,80.4797843 128.196662,78.5600196 128.787841,77.0502549 L128.787841,77.0502549 C129.568781,75.0565294 129.306035,73.4060784 128.849473,71.4911373 L128.849473,71.4911373 C128.529149,70.151 128.877856,68.6460588 128.989766,67.219098 L128.989766,67.219098 C129.023826,66.7954314 129.423622,66.379 129.398483,65.9746275 L129.398483,65.9746275 C129.191692,62.6367451 128.549423,59.2763529 128.782975,55.975451 L128.782975,55.975451 C129.001119,52.8988431 127.518711,50.4766275 126.487189,47.9667843 L126.487189,47.9667843 C125.356731,45.2165686 123.448577,42.8265098 121.139816,40.6422549 L121.139816,40.6422549 C119.010274,38.6276275 116.88803,36.7585098 114.295438,35.4939412 L114.295438,35.4939412 C111.492811,34.1272745 108.591249,32.9350588 105.662925,31.8561961 L105.662925,31.8561961 C104.323244,31.3625882 102.624313,30.7765294 101.419249,31.1881373 L101.419249,31.1881373 C98.7252886,32.1070196 96.126209,33.4479608 93.7031045,34.9553137 L93.7031045,34.9553137 C91.7608905,36.1636078 90.1341343,37.8703333 88.3662736,39.3551765 L88.3662736,39.3551765 C86.3908109,41.0136667 84.3520945,40.4179608 83.3108408,38.171 L83.3108408,38.171 C82.6312687,36.7046471 81.6751642,35.1812157 80.4319851,34.1899804 L80.4319851,34.1899804 C76.7105572,31.221098 72.8188308,28.4250588 68.03101,27.3325294 L68.03101,27.3325294 C66.1212338,26.8968039 64.0711642,26.127451 62.2546468,26.4498235 L62.2546468,26.4498235 C59.1211542,27.0061373 56.1052488,28.2514118 53.0698806,29.2957059 L53.0698806,29.2957059 C51.004403,30.0047647 49.0816517,31.3738431 46.4720299,30.3166863 L46.4720299,30.3166863 C46.6342189,28.7353725 46.958597,27.1122549 46.929403,25.4947647 L46.929403,25.4947647 C46.8880448,23.2084118 46.8742587,20.8569412 46.3349801,18.6574118 L46.3349801,18.6574118 C45.0974776,13.6079804 41.3565871,10.5201176 36.9823483,8.16221569 L36.9823483,8.16221569 C34.1172786,6.61788235 31.1735473,5.17805882 28.1479104,3.98021569 L28.1479104,3.98021569 C24.9933333,2.73092157 21.7098159,1.78631373 18.4522488,0.813568627 L18.4522488,0.813568627 C18.3111443,0.770960784 18.1505771,0.751663724 17.9819005,0.751663724 L17.9819005,0.751663724 C17.4945224,0.751663724 16.9390249,0.914862745 16.5805871,1.16488235" id="path-5"></path>
        <path d="M29.4115684,1.68675 C26.5690526,3.9154375 23.4801368,5.8670625 20.8459263,8.315125 L20.8459263,8.315125 C14.5870421,14.1301875 9.39481053,20.787 6.0676,28.7681875 L6.0676,28.7681875 C2.52316842,37.2669375 0.611947368,46.1183125 0.439305263,55.3223125 L0.439305263,55.3223125 C0.397157895,57.617625 0.641936842,59.9178125 0.731905263,62.2171875 L0.731905263,62.2171875 C2.14708421,64.4938125 4.24310526,66.044875 4.91746316,68.628625 L4.91746316,68.628625 C5.52941053,69.3818125 6.13001053,70.1423125 6.699,70.9271875 L6.699,70.9271875 C9.13138947,74.2795625 12.7868632,75.7664375 16.4828632,76.717875 L16.4828632,76.717875 C19.6422947,77.530375 23.0505579,77.5539375 26.3510211,77.58075 L26.3510211,77.58075 C30.0680947,77.611625 33.6862842,77.0225625 36.1275895,73.6506875 L36.1275895,73.6506875 C36.3115789,73.3971875 36.7857368,73.3655 37.1083263,73.1989375 L37.1083263,73.1989375 C38.9182316,72.26375 41.0102,71.6340625 42.4642842,70.305625 L42.4642842,70.305625 C44.7556421,68.215875 46.6125579,65.6491875 48.6615684,63.292125 L48.6615684,63.292125 C49.8222421,61.9588125 52.4118737,61.78575 53.6098316,63.1304375 L53.6098316,63.1304375 C57.4136316,67.3985 62.5369684,67.964 67.6846211,67.9705 L67.6846211,67.9705 C71.3579263,67.975375 74.1088526,65.6735625 76.5339474,62.6900625 L76.5339474,62.6900625 C75.4024526,62.973625 74.4752105,63.3416875 73.5236526,63.4213125 L73.5236526,63.4213125 C68.5924105,63.83325 66.0173684,64.47675 66.3140211,57.8800625 L66.3140211,57.8800625 C66.5409684,52.840125 68.1879579,48.1544375 70.5546947,43.63775 L70.5546947,43.63775 C72.6385579,39.6638125 74.5068211,35.4891875 75.7736737,31.1975625 L75.7736737,31.1975625 C76.8516737,27.545375 75.5653684,23.9191875 72.5502105,21.4784375 L72.5502105,21.4784375 C69.5083053,19.0165625 65.9922421,17.147 62.9154842,14.7216875 L62.9154842,14.7216875 C61.2028421,13.3729375 59.9076211,13.7288125 58.5216211,14.798875 L58.5216211,14.798875 C57.3795895,15.68125 56.3826421,16.7545625 55.3216632,17.743375 L55.3216632,17.743375 C55.5315895,17.7961875 55.7423263,17.850625 55.9522526,17.9034375 L55.9522526,17.9034375 C56.1994632,18.889 56.6347158,19.8705 56.6428211,20.8576875 L56.6428211,20.8576875 C56.6533579,21.9545625 56.3672421,23.083125 56.0511368,24.1515625 L56.0511368,24.1515625 C54.3368737,29.94225 52.5545263,35.712625 50.8378316,41.5025 L50.8378316,41.5025 C50.3199053,43.2501875 50.4066316,45.391125 49.3991474,46.7415 L49.3991474,46.7415 C46.5128632,50.610625 43.3518105,54.3050625 40.0246,57.8069375 L40.0246,57.8069375 C37.0629368,60.9220625 33.8329895,63.80725 30.5317158,66.5665 L30.5317158,66.5665 C28.5289053,68.238625 26.2505158,69.63775 23.9413263,70.86625 L23.9413263,70.86625 C21.4149158,72.2076875 17.9353263,70.7256875 17.6800105,68.263 L17.6800105,68.263 C17.4603579,66.14075 17.3874105,63.9275 17.7383684,61.8369375 L17.7383684,61.8369375 C18.4646,57.5063125 19.3302421,53.178125 20.4892947,48.945 L20.4892947,48.945 C21.4967789,45.2651875 22.7190526,41.591875 24.3425368,38.1509375 L24.3425368,38.1509375 C25.7050316,35.267375 27.7159474,32.6755 29.5728632,30.0486875 L29.5728632,30.0486875 C30.5568421,28.6593125 31.7977579,27.4486875 32.9705895,26.2023125 L32.9705895,26.2023125 C33.8394737,25.2785 34.8882947,24.5074375 35.6777474,23.525125 L35.6777474,23.525125 C37.3960632,21.3858125 38.9976632,19.1530625 40.6576211,16.966625 L40.6576211,16.966625 C40.7265158,16.875625 40.887,16.835 41.0142526,16.8098125 L41.0142526,16.8098125 C43.2107789,16.362125 43.3996316,14.548625 43.7578842,12.819625 L43.7578842,12.819625 C44.2442,10.47475 42.6531368,8.9253125 41.3806105,7.5294375 L41.3806105,7.5294375 C39.4920842,5.46 37.1788421,3.774875 35.0058211,1.974375 L35.0058211,1.974375 C34.0258947,1.1626875 33.0224632,0.684125 31.9858,0.684125 L31.9858,0.684125 C31.1517684,0.684125 30.2950421,0.992875 29.4115684,1.68675" id="path-7"></path>
        <path d="M264.604105,0.519182609 C257.982524,3.54855652 251.738376,7.28068696 246.076071,11.8037217 L246.076071,11.8037217 C241.059186,15.8116174 236.315919,20.2586348 232.634938,25.6210957 L232.634938,25.6210957 C230.248819,29.0976783 227.578619,32.4586174 226.253176,36.5506174 L226.253176,36.5506174 C224.153552,43.0355478 222.599557,49.6175217 223.869471,56.5108435 L223.869471,56.5108435 C224.557543,60.2429739 225.6657,63.8263043 228.649757,66.4246435 L228.649757,66.4246435 C230.077405,67.6659913 232.032171,68.437487 233.126648,69.8931391 L233.126648,69.8931391 C239.003019,77.700287 252.06511,80.4684522 259.884981,74.2366435 L259.884981,74.2366435 C258.535395,80.604313 255.41131,86.2263652 253.288348,92.319887 L253.288348,92.319887 C251.65629,97.0030435 250.537671,101.864922 248.944243,106.564252 L248.944243,106.564252 C248.217543,108.70487 247.3822,111.10993 244.391705,111.24013 L244.391705,111.24013 C243.215948,111.291887 242.0418,111.460096 240.87731,111.648522 L240.87731,111.648522 C236.176695,112.408696 231.482519,113.204452 226.783514,113.97433 L226.783514,113.97433 C223.302114,114.544461 219.820714,115.112974 216.333681,115.649948 L216.333681,115.649948 C212.136848,116.295287 207.927138,116.862991 203.735938,117.547148 L203.735938,117.547148 C200.65531,118.050157 197.592386,118.667191 194.527048,119.268052 L194.527048,119.268052 C190.569229,120.0444 186.592095,120.749583 182.669686,121.682817 L182.669686,121.682817 C178.7513,122.616052 174.901319,123.834757 171.002248,124.852904 L171.002248,124.852904 C164.652676,126.509113 158.267695,128.032696 151.935829,129.754409 L151.935829,129.754409 C148.510762,130.685217 145.173414,131.935461 141.782952,132.998896 L141.782952,132.998896 C135.893705,134.846765 129.953757,136.4682 123.765943,136.94533 L123.765943,136.94533 C123.522905,136.96393 123.273429,137.11273 123.057752,137.251017 L123.057752,137.251017 C120.493781,138.899948 117.717352,138.711522 115.566224,138.34033 L115.566224,138.34033 C114.068562,139.248496 113.097214,140.196287 111.969743,140.454261 L111.969743,140.454261 C108.34429,141.284791 104.664919,141.888078 100.997619,142.526139 L100.997619,142.526139 C98.1543952,143.021061 95.4994857,143.795791 92.760881,144.942522 L92.760881,144.942522 C88.9028524,146.559104 84.9184762,148.610765 80.3586952,148.243617 L80.3586952,148.243617 C78.9720905,148.132017 77.0800952,148.674652 76.1739333,149.635383 L76.1739333,149.635383 C74.982081,150.900183 73.5721381,151.201017 72.1799,151.737991 L72.1799,151.737991 C70.8552619,152.24747 69.4638286,152.586313 68.0941238,152.974487 L68.0941238,152.974487 C66.1659143,153.520357 64.2280476,154.03307 62.2982286,154.57813 L62.2982286,154.57813 C61.0677476,154.926678 59.7165524,155.085183 58.6446095,155.715965 L58.6446095,155.715965 C55.6251429,157.494287 52.7811143,159.576678 49.7552095,161.343678 L49.7552095,161.343678 C45.8955714,163.598322 41.8315238,165.50927 38.028219,167.852061 L38.028219,167.852061 C34.4172524,170.075974 30.9937952,172.617704 27.5558524,175.114148 L27.5558524,175.114148 C25.5069286,176.602148 23.4580048,178.133009 21.6408524,179.887878 L21.6408524,179.887878 C18.7517571,182.678687 16.041319,185.657113 13.2825952,188.582165 L13.2825952,188.582165 C7.53498571,194.674878 3.36873333,201.340957 2.07306667,210.061122 L2.07306667,210.061122 C0.779814286,218.771583 0.267985714,227.426243 0.284080952,236.171478 L0.284080952,236.171478 C0.2873,237.574565 0.245452381,238.97927 0.25752381,240.382357 L0.25752381,240.382357 C0.294542857,244.607791 -0.0152904762,248.883365 0.556090476,253.036017 L0.556090476,253.036017 C0.821661905,254.967991 2.9406,256.587809 3.9884,258.47773 L3.9884,258.47773 C5.6719619,261.515191 8.26007619,263.453635 11.2344762,264.965087 L11.2344762,264.965087 C12.2476714,265.479417 13.4821762,265.593443 14.4309905,266.187835 L14.4309905,266.187835 C15.7741381,267.029687 16.8034286,268.557313 18.2230286,269.059513 L18.2230286,269.059513 C21.0195762,270.047739 24.0036333,270.490096 26.8895095,271.241374 L26.8895095,271.241374 C28.6624,271.703948 31.1780857,270.67367 31.6279476,273.145852 L31.6279476,273.145852 C35.0570381,274.032991 38.3541476,274.507696 41.3060143,275.787052 L41.3060143,275.787052 C43.1730619,276.595748 44.9057143,276.802774 46.8001238,276.851296 L46.8001238,276.851296 C47.4479571,276.86747 48.0893524,277.064791 48.7387952,277.11493 L48.7387952,277.11493 C54.0711476,277.532217 59.400281,278.159765 64.7398762,278.260043 L64.7398762,278.260043 C68.1850619,278.324739 71.6399048,277.554052 75.0979667,277.256452 L75.0979667,277.256452 C80.9558286,276.751017 86.8088619,276.316748 92.4695571,274.49233 L92.4695571,274.49233 C94.9828286,273.681209 97.5910619,273.148278 100.175957,272.574104 L100.175957,272.574104 C102.267533,272.109104 104.493505,272.057348 106.470805,271.314965 L106.470805,271.314965 C110.109938,269.949887 113.664571,268.322791 117.156433,266.604313 L117.156433,266.604313 C122.203095,264.120809 127.184571,261.499017 132.153171,258.859435 L132.153171,258.859435 C136.291257,256.659783 140.384276,254.371174 144.471662,252.075287 L144.471662,252.075287 C146.351586,251.01913 148.038367,249.3702 150.0382,248.823522 L150.0382,248.823522 C155.136367,247.428522 158.822176,243.758661 163.1864,241.208035 L163.1864,241.208035 C166.081129,239.515435 168.786738,237.483183 171.502005,235.499452 L171.502005,235.499452 C173.328814,234.165104 175.026057,232.650417 176.779633,231.214174 L176.779633,231.214174 C179.44259,229.033122 182.115205,226.8642 184.759652,224.661313 L184.759652,224.661313 C185.706052,223.873643 186.613019,223.0326 187.481357,222.1584 L187.481357,222.1584 C188.320724,221.312504 189.020062,220.319426 189.897252,219.518817 L189.897252,219.518817 C191.585643,217.979061 193.379457,216.555757 195.07509,215.024087 L195.07509,215.024087 C195.56519,214.580922 195.788914,213.843391 196.271771,213.386478 L196.271771,213.386478 C199.057857,210.746896 201.897057,208.163113 204.689581,205.528383 L204.689581,205.528383 C205.135419,205.10867 205.423524,204.522365 205.803371,204.025826 L205.803371,204.025826 C206.674929,202.886374 207.494176,201.696783 208.457476,200.639009 L208.457476,200.639009 C209.343519,199.667765 210.530543,198.956113 211.3345,197.932304 L211.3345,197.932304 C213.002771,195.80867 214.431224,193.4958 216.089033,191.364078 L216.089033,191.364078 C219.737019,186.671217 223.465481,182.039817 227.164167,177.386583 L227.164167,177.386583 C228.542724,175.65193 229.988076,173.967417 231.296619,172.181009 L231.296619,172.181009 C232.592286,170.411583 233.755971,168.543496 234.9776,166.719078 L234.9776,166.719078 C236.665186,164.2008 238.375305,161.697078 240.0307,159.156965 L240.0307,159.156965 C240.666462,158.18087 240.981124,156.908791 241.790714,156.147809 L241.790714,156.147809 C243.744676,154.31207 244.704757,152.04853 245.442724,149.556939 L245.442724,149.556939 C245.737267,148.56467 246.46799,147.664591 247.134333,146.830017 L247.134333,146.830017 C247.925414,145.840983 249.094733,145.100217 249.691062,144.023035 L249.691062,144.023035 C251.661119,140.466391 253.475857,136.819983 255.29301,133.180852 L255.29301,133.180852 C256.261943,131.237557 256.841371,129.041948 258.071048,127.299209 L258.071048,127.299209 C261.134776,122.955704 264.732062,118.974496 267.583333,114.506452 L267.583333,114.506452 C268.91119,112.427296 270.344471,112.584991 271.984576,112.884209 L271.984576,112.884209 C273.907152,113.235991 275.479657,113.468087 277.518924,112.502504 L277.518924,112.502504 C280.6414,111.0234 284.170281,110.310939 287.594543,109.607374 L287.594543,109.607374 C290.767719,108.956374 294.025395,108.700826 297.254905,108.349043 L297.254905,108.349043 C301.500829,107.888087 305.902876,108.058722 309.971752,106.958896 L309.971752,106.958896 C316.549071,105.180574 323.139267,104.684035 329.875929,104.620148 L329.875929,104.620148 C332.406905,104.596696 334.928224,103.625452 337.452762,103.086861 L337.452762,103.086861 C337.392405,102.706774 337.330438,102.326687 337.270081,101.945791 L337.270081,101.945791 C315.323419,104.006348 293.375952,106.066096 271.424462,108.127461 L271.424462,108.127461 C270.8563,105.187852 271.533105,102.55393 273.693086,100.386626 L273.693086,100.386626 C274.412543,99.6644609 275.770176,99.1816696 275.946419,98.3899565 L275.946419,98.3899565 C276.528262,95.7778696 278.387262,94.0262348 279.675686,91.8977478 L279.675686,91.8977478 C280.174638,91.0720696 280.577019,90.1841217 281.105748,89.3786609 L281.105748,89.3786609 C282.589729,87.1175478 284.805238,85.0626522 285.432952,82.592087 L285.432952,82.592087 C286.059862,80.120713 286.677114,78.0633913 288.720405,76.5212087 L288.720405,76.5212087 C289.113129,76.2260348 289.347314,75.6834 289.57989,75.2167826 L289.57989,75.2167826 C290.670343,73.0260261 291.769648,70.839313 292.796524,68.6194435 L292.796524,68.6194435 C293.816962,66.4133217 293.833862,63.9775304 295.053881,61.6711304 L295.053881,61.6711304 C297.283071,57.4586348 299.015724,53.0188957 302.455276,49.560913 L302.455276,49.560913 C303.735652,48.275087 305.239752,46.5048522 304.619281,44.9287043 L304.619281,44.9287043 C303.533657,42.1710522 301.848486,39.5468348 299.958905,37.2444783 L299.958905,37.2444783 C298.228667,35.1370174 295.908538,33.5139652 293.8234,31.7073391 L293.8234,31.7073391 C292.459329,30.5250261 291.003514,29.4470348 289.668414,28.2331826 L289.668414,28.2331826 C287.052938,25.8548087 284.521157,23.3818174 281.878319,21.0349826 L281.878319,21.0349826 C281.505714,20.7026087 280.625305,20.637913 280.11589,20.8247217 L280.11589,20.8247217 C277.737819,21.6932609 275.899743,24.645 275.705795,27.0904957 L275.705795,27.0904957 C275.57301,28.7523652 275.106248,30.421513 274.570276,32.0130261 L274.570276,32.0130261 C272.444095,38.3224696 270.262386,44.6141217 268.029976,50.8871739 L268.029976,50.8871739 C267.402262,52.6517478 266.904114,54.684 265.691338,55.9690174 L265.691338,55.9690174 C263.308438,58.4921478 260.542471,60.6772435 257.795014,62.8210957 L257.795014,62.8210957 C254.726457,65.2132174 252.098105,68.1754696 248.317333,69.6610435 L248.317333,69.6610435 C243.68271,71.4830348 240.186019,70.206913 239.425519,65.7275478 L239.425519,65.7275478 C238.489581,60.2106261 237.387862,54.6726783 240.073352,49.1719304 L240.073352,49.1719304 C243.443695,42.2689043 247.356448,35.627087 252.444957,29.8513826 L252.444957,29.8513826 C257.172933,24.485687 262.476314,23.4457043 268.858881,20.7115043 L268.858881,20.7115043 C272.42639,19.1838783 275.391133,16.8556435 277.273471,13.3992783 L277.273471,13.3992783 C277.675852,12.6601304 277.815076,11.2214609 277.374067,10.6642696 L277.374067,10.6642696 C274.923567,7.55968696 272.403052,4.47855652 269.594433,1.70715652 L269.594433,1.70715652 C268.742995,0.866921739 267.590576,0.14313913 266.258695,0.14313913 L266.258695,0.14313913 C265.733186,0.14313913 265.178705,0.256356522 264.604105,0.519182609 M50.9583286,273.191948 C48.6398095,272.810243 46.1514857,272.346861 44.5926619,270.150443 L44.5926619,270.150443 C44.4566571,269.958783 44.2417857,269.729113 44.0365714,269.697574 L44.0365714,269.697574 C41.273019,269.263304 38.5078571,268.8444 35.7378667,268.455417 L35.7378667,268.455417 C30.7660476,267.758322 25.9020667,266.770904 21.5475,264.026191 L21.5475,264.026191 C19.1525286,262.516357 16.5958,261.266922 14.209681,259.747383 L14.209681,259.747383 C13.6262286,259.376191 13.1369333,258.420313 13.0934762,257.703809 L13.0934762,257.703809 C12.8488286,253.721791 13.4781524,249.854609 14.7432381,246.056165 L14.7432381,246.056165 C15.314619,244.34173 15.4586714,242.484965 15.8208143,240.696939 L15.8208143,240.696939 C16.7881381,235.920783 19.556519,232.101313 22.5156286,228.450052 L22.5156286,228.450052 C24.6482476,225.818557 26.9096286,223.232348 29.4414095,221.000348 L29.4414095,221.000348 C32.8294571,218.013026 36.5088286,215.354843 40.1101381,212.619026 L40.1101381,212.619026 C42.3497905,210.91753 44.6312905,209.265365 46.9739524,207.711861 L46.9739524,207.711861 C50.3764857,205.454791 53.8071857,203.234113 57.3062905,201.133122 L57.3062905,201.133122 C61.485419,198.623739 65.7313429,196.225957 69.9877286,193.852435 L69.9877286,193.852435 C70.8134143,193.391478 71.8885762,193.391478 72.7279429,192.949122 L72.7279429,192.949122 C77.1291857,190.628974 81.4644381,188.185904 85.8785571,185.894061 L85.8785571,185.894061 C87.5090048,185.046548 89.3430571,184.597722 90.9944286,183.782557 L90.9944286,183.782557 C97.5041476,180.5688 103.555957,175.852487 110.039924,172.312826 L110.039924,172.312826 C117.499262,168.240235 125.048733,164.336661 132.6819,160.605339 L132.6819,160.605339 C147.371219,153.423313 162.392905,147.186652 177.527257,141.038139 L177.527257,141.038139 C198.695714,132.437661 220.478205,123.041426 243.022805,118.889583 L243.022805,118.889583 C238.953124,124.577948 237.424881,131.376652 234.932533,137.952965 L234.932533,137.952965 C234.393343,139.333409 233.55639,140.596591 232.870733,141.921235 L232.870733,141.921235 C230.647176,146.219452 228.67229,150.670513 226.154995,154.785965 L226.154995,154.785965 C222.057148,161.487626 218.117838,168.305739 213.070371,174.3936 L213.070371,174.3936 C209.848105,178.278574 206.987176,182.463574 203.867919,186.437504 L203.867919,186.437504 C201.835895,189.026948 199.613948,191.465165 197.504667,193.993148 L197.504667,193.993148 C194.171343,197.986487 190.977243,202.103557 187.504695,205.968313 L187.504695,205.968313 C184.755629,209.028417 181.737771,211.855617 178.727962,214.667452 L178.727962,214.667452 C175.046176,218.106026 170.744724,221.013287 167.64639,224.902304 L167.64639,224.902304 C164.544033,228.796174 160.529076,231.288574 156.841657,234.308243 L156.841657,234.308243 C154.847457,235.941809 152.77761,237.488843 150.667524,238.967948 L150.667524,238.967948 C149.828962,239.556678 148.708733,239.733783 147.85649,240.309574 L147.85649,240.309574 C145.781814,241.712661 143.873724,243.380191 141.742714,244.681383 L141.742714,244.681383 C138.419852,246.709591 134.989957,248.563122 131.564086,250.413417 L131.564086,250.413417 C129.410543,251.57713 127.12341,252.498235 125.008495,253.7226 L125.008495,253.7226 C123.594529,254.540191 122.446938,255.814696 121.052286,256.677574 L121.052286,256.677574 C119.5506,257.607574 117.900838,258.2982 116.313043,259.087487 L116.313043,259.087487 C113.18091,260.645035 110.096257,262.314991 106.898133,263.723739 L106.898133,263.723739 C103.6139,265.171304 100.256433,266.481391 96.8579238,267.631357 L96.8579238,267.631357 C93.6107095,268.730374 90.3079667,269.735583 86.9585476,270.439148 L86.9585476,270.439148 C82.2981714,271.41767 77.5887048,272.211 72.8679714,272.832078 L72.8679714,272.832078 C68.6260714,273.388461 64.3407143,273.605191 60.9076,273.900365 L60.9076,273.900365 C57.006919,273.651287 53.9399714,273.684443 50.9583286,273.191948" id="path-9"></path>
        <path d="M4.59564286,0.886668017 C4.98614286,3.34662066 5.41357143,5.5453105 5.6705,7.76441149 L5.6705,7.76441149 C6.006,10.6717767 6.17571429,13.5987366 6.47428571,16.5110005 L6.47428571,16.5110005 C6.83257143,20.0094728 7.22778571,23.5038629 7.64971429,26.9949872 L7.64971429,26.9949872 C8.00642857,29.9497063 8.74971429,32.8995267 8.7285,35.8477142 L8.7285,35.8477142 C8.70335714,39.2808708 8.18321429,42.735255 7.61121429,46.132488 L7.61121429,46.132488 C6.402,53.3025193 5.13542857,60.4676518 3.65828571,67.5829812 L3.65828571,67.5829812 C2.92521429,71.1165607 1.54942857,74.5023634 0.714214286,78.0187975 L0.714214286,78.0187975 C0.358285714,79.5202422 -0.882357143,81.4674666 1.122,82.6782564 L1.122,82.6782564 C2.35557143,83.4228555 2.673,84.3086997 2.585,85.6199124 L2.585,85.6199124 C2.52685714,86.4812632 2.574,87.3507785 2.574,88.4440001 L2.574,88.4440001 C3.0525,88.1149722 3.51528571,87.9753599 3.60564286,87.7018504 L3.60564286,87.7018504 C3.95135714,86.6633307 4.14464286,85.5725585 4.45185714,84.5185264 L4.45185714,84.5185264 C5.3515,81.4290936 6.30457143,78.3029208 9.12135714,76.4904101 L9.12135714,76.4904101 C10.5717857,75.557212 12.4543571,74.2157907 13.8332857,74.5284897 L13.8332857,74.5284897 C16.7184286,75.1816467 17.5709286,72.8466103 19.1415714,71.6268396 L19.1415714,71.6268396 C20.6705714,70.4380938 21.9434286,68.8982761 23.3985714,67.5960443 L23.3985714,67.5960443 C23.5415714,67.4678622 23.7937857,67.4833747 24.0530714,67.4997036 L24.0530714,67.4997036 C24.2895714,67.5143997 24.5347143,67.5290957 24.7099286,67.4335715 L24.7099286,67.4335715 C25.52,66.9951398 26.4738571,66.5689549 26.9751429,65.8439506 L26.9751429,65.8439506 C28.3941429,63.7897717 28.2684286,60.7591231 30.7442143,59.3278928 L30.7442143,59.3278928 C30.866,59.2584949 30.8534286,58.9596755 30.9272857,58.7792409 L30.9272857,58.7792409 C32.5529286,54.8031475 34.1636429,50.821339 35.8207143,46.8599417 L35.8207143,46.8599417 C36.2992143,45.7169169 36.6716429,44.3567174 37.5068571,43.5761947 L37.5068571,43.5761947 C39.8042857,41.4338397 40.4878571,38.6473085 41.0991429,35.7260637 L41.0991429,35.7260637 C41.4409286,34.0907218 42.1048571,32.5296765 42.4741429,30.8992333 L42.4741429,30.8992333 C42.8442143,29.2663407 43.5859286,27.4203557 43.1797143,25.9638155 L43.1797143,25.9638155 C42.2682857,22.6955811 40.2977143,19.8837401 37.7645714,17.6907654 L37.7645714,17.6907654 C32.2025,12.8769981 26.5956429,8.11711628 20.8787857,3.50501124 L20.8787857,3.50501124 C19.2775,2.21420967 17.3069286,1.27611289 15.3654286,0.633569669 L15.3654286,0.633569669 C14.7808571,0.440071901 14.0784286,0.548659256 13.3901429,0.656430165 L13.3901429,0.656430165 C12.6107143,0.778080661 11.8477857,0.900547603 11.2891429,0.586215785 L11.2891429,0.586215785 C10.5215,0.155948595 9.79942857,0.000823801653 9.08364286,0.000823801653 L9.08364286,0.000823801653 C7.66228571,0.000823801653 6.26685714,0.612342066 4.59564286,0.886668017" id="path-11"></path>
    </defs>
    <g id="Page-1" stroke="none" stroke-width="1" fill="none" fill-rule="evenodd">
        <g id="preloader-n-step" transform="translate(-411.000000, -328.000000)">
            <g id="Page-" transform="translate(411.000000, 328.000000)">
                <g id="Group-3" transform="translate(0.000000, 2.000000)">
                    <mask id="mask-2" fill="white">
                        <use xlink:href="#path-1"></use>
                    </mask>
                    <g id="Clip-2"></g>
                    <path d="M28.2573687,-2.25620995 C28.2573687,-2.25620995 35.0758687,22.6669077 36.0500562,33.347781 C37.0242437,44.0294643 37.9976187,78.3375276 37.9976187,78.3375276 L29.8807437,120.349071 L12.6719937,157.637767 L10.9259312,164.591229 L9.75024375,173.320111 L9.75024375,180.485781" id="Stroke-1" stroke="#000000" stroke-width="130" mask="url(#mask-2)"></path>
                </g>
                <g id="Group-6" transform="translate(3.000000, 197.000000)">
                    <mask id="mask-4" fill="white">
                        <use xlink:href="#path-3"></use>
                    </mask>
                    <g id="Clip-5"></g>
                    <polyline id="Stroke-4" stroke="#000000" stroke-width="80" mask="url(#mask-4)" points="21.3125889 -2.39126866 15.8385889 24.2418657 15.8385889 38.4458209 15.8385889 57.9765672"></polyline>
                </g>
                <g id="Group-9" transform="translate(67.000000, 45.000000)">
                    <mask id="mask-6" fill="white">
                        <use xlink:href="#path-5"></use>
                    </mask>
                    <g id="Clip-8"></g>
                    <polyline id="Stroke-7" stroke="#000000" stroke-width="80" mask="url(#mask-6)" points="27.9399841 -3.09630392 25.3538796 44.9701667 17.2379393 89.7598529 9.26391443 116.675951 15.0102726 110.553284 22.1936259 89.1898725 31.3873124 56.7894216 37.7086308 40.3275196 46.6160537 34.5023039 60.1199144 30.7994412 69.0273373 32.7931667 75.6357303 43.3317745 72.7625512 69.8217941 67.3032677 98.0201471 73.0496259 87.7661275 79.0830587 69.536402 85.9793373 49.8829314 99.7710836 40.3275196 108.103546 41.9072255 114.424054 56.7894216 117.010158 87.1961471 127.928725 90.0444412 144.018691 79.7912255 162.273069 61.8476961"></polyline>
                </g>
                <g id="Group-12" transform="translate(222.000000, 47.000000)">
                    <mask id="mask-8" fill="white">
                        <use xlink:href="#path-7"></use>
                    </mask>
                    <g id="Clip-11"></g>
                    <polyline id="Stroke-10" stroke="#000000" stroke-width="230" mask="url(#mask-8)" points="42.5530368 -0.86555625 22.6789316 18.7384438 15.7667632 32.8856938 9.43006842 57.1388188 11.4466579 68.1108188 18.6465632 74.4141938 28.7278895 74.4141938 45.7213842 60.8828188 56.3781842 49.6321313 66.1709632 22.2029438 60.9868368 48.4767563 59.8342684 60.8828188 64.1543737 65.8008813 71.0673526 65.2231938 80.2838474 60.8828188"></polyline>
                </g>
                <g id="Group-15" transform="translate(84.000000, 24.000000)">
                    <mask id="mask-10" fill="white">
                        <use xlink:href="#path-9"></use>
                    </mask>
                    <g id="Clip-14"></g>
                    <polyline id="Stroke-13" stroke="#000000" stroke-width="110" mask="url(#mask-10)" points="276.070674 0.142977391 258.20496 13.6433426 239.016217 31.2632035 232.068708 49.8809948 234.054055 62.4020296 238.354703 69.8282817 243.647622 72.8212643 255.888855 74.4831339 268.792408 64.8418643 293.605631 34.2553774 275.739917 74.4831339 257.212689 106.066743 225.367455 174.221186 197.330355 206.469543 149.689255 244.703056 115.611612 264.317969 82.1970933 274.95636 51.0978743 274.95636 29.5930267 269.637569 10.403479 260.327864 5.77207429 237.388403 14.7049314 201.815499 56.0600362 172.882795 111.641722 153.275969 184.758365 128.341456 246.626046 114.378517 279.37905 109.058917 314.44816 105.069621 330.09595 103.376212 346.198431 101.68523"></polyline>
                </g>
                <g id="Group-18" transform="translate(396.000000, 0.000000)">
                    <mask id="mask-12" fill="white">
                        <use xlink:href="#path-11"></use>
                    </mask>
                    <g id="Clip-17"></g>
                    <polyline id="Stroke-16" stroke="#000000" stroke-width="80" mask="url(#mask-12)" points="24.6088071 1.82207052 18.0480929 34.0186296 15.11345 62.5591423 5.97952143 77.7319799 4.47016429 79.7567667 2.24737857 93.5351142"></polyline>
                </g>
            </g>
        </g>
    </g>
</svg>